ply
format ascii 1.0
element face 0
property list uchar int vertex_indices
element vertex 115
property float x
property float y
property float z
property uchar diffuse_red
property uchar diffuse_green
property uchar diffuse_blue
end_header
5.756149e-002 -8.393982e-001 3.361430e+000 255 255 255
2.029913e-001 -7.649210e-001 3.343269e+000 255 255 255
-1.752511e-001 -6.537630e-001 3.278062e+000 255 255 255
6.430045e-001 -6.263568e-001 3.407981e+000 255 255 255
-4.856131e-001 -4.025745e-001 3.397148e+000 255 255 255
-1.077805e-001 -3.297826e-001 3.163435e+000 255 255 255
9.070321e-001 -1.894296e-001 3.547077e+000 255 255 255
9.070321e-001 -1.894296e-001 3.547077e+000 255 255 255
9.124985e-001 -1.178450e-001 3.564493e+000 255 255 255
-2.869150e-001 -7.133338e-002 3.039946e+000 255 255 255
-5.496404e-001 4.366881e-002 2.879518e+000 255 255 255
7.628891e-002 1.063658e-001 2.953513e+000 255 255 255
4.609929e-002 1.339963e-001 2.940650e+000 255 255 255
3.225332e-002 1.632665e-001 2.934003e+000 255 255 255
1.157956e-001 2.126435e-001 2.964908e+000 255 255 255
-1.728118e-002 2.440540e-001 2.909916e+000 255 255 255
-4.950421e-001 3.110255e-001 2.893293e+000 255 255 255
-3.537999e-001 3.697519e-001 2.899669e+000 255 255 255
-3.435441e-001 3.941479e-001 2.897390e+000 255 255 255
-3.293500e-001 6.568527e-001 2.891819e+000 255 255 255
1.366016e-001 6.536175e-001 2.820506e+000 255 255 255
1.133531e-001 6.629795e-001 2.781070e+000 255 255 255
2.825140e-001 6.622625e-001 2.778602e+000 255 255 255
1.131495e-001 6.930131e-001 2.730595e+000 255 255 255
7.212590e-001 7.072821e-001 2.783450e+000 255 255 255
-2.225978e-001 6.973182e-001 2.744454e+000 255 255 255
6.764596e-001 7.299228e-001 2.747386e+000 255 255 255
4.098726e-001 -8.349812e-001 3.395020e+000 255 255 255
-4.418219e-001 -3.688297e-002 2.945812e+000 255 255 255
-6.078044e-001 7.623836e-003 2.847945e+000 255 255 255
-5.978272e-001 5.429154e-002 2.851581e+000 255 255 255
-3.325211e-001 7.147722e-002 2.954946e+000 255 255 255
-3.299151e-001 7.110869e-002 2.932223e+000 255 255 255
-5.472044e-002 1.556462e-001 2.899713e+000 255 255 255
-3.807843e-003 1.964970e-001 2.918592e+000 255 255 255
-3.092085e-002 3.237975e-001 2.904863e+000 255 255 255
1.071620e+000 4.019382e-001 3.574288e+000 255 255 255
1.099938e+000 5.904622e-001 3.115066e+000 255 255 255
1.648194e-001 6.898101e-001 2.731268e+000 255 255 255
6.843502e-001 7.065166e-001 2.766118e+000 255 255 255
-1.873472e-001 7.541151e-001 2.617196e+000 255 255 255
1.173265e-001 -7.126993e-001 3.232166e+000 255 255 255
6.681758e-001 -5.344891e-001 3.400566e+000 255 255 255
-4.636201e-001 -4.435382e-001 3.414126e+000 255 255 255
4.314821e-001 -3.892667e-001 3.239764e+000 255 255 255
-5.375623e-001 -9.320685e-003 2.884585e+000 255 255 255
-4.462850e-001 6.129137e-002 2.869900e+000 255 255 255
-3.756312e-001 2.057265e-001 2.889843e+000 255 255 255
2.422286e-001 5.329769e-001 3.001227e+000 255 255 255
-3.393292e-001 5.647728e-001 2.885826e+000 255 255 255
-2.453367e-001 5.715234e-001 2.939336e+000 255 255 255
1.454128e-001 5.822287e-001 2.832021e+000 255 255 255
5.027419e-001 6.467123e-001 2.809396e+000 255 255 255
3.747102e-001 6.675266e-001 2.783069e+000 255 255 255
3.896630e-002 6.995234e-001 2.733499e+000 255 255 255
2.686458e-001 -8.102186e-001 3.424061e+000 255 255 255
-1.531168e-001 -4.835000e-001 3.299508e+000 255 255 255
7.112967e-001 -1.470388e-001 3.444169e+000 255 255 255
-5.429982e-003 2.375733e-002 2.928318e+000 255 255 255
-2.058865e-002 7.449325e-002 2.921587e+000 255 255 255
-5.079811e-002 7.843604e-002 2.886537e+000 255 255 255
-3.954652e-001 8.777291e-002 2.875257e+000 255 255 255
1.064546e-001 2.591633e-001 2.948775e+000 255 255 255
-2.918843e-001 3.522705e-001 2.927680e+000 255 255 255
-2.918843e-001 3.522705e-001 2.927680e+000 255 255 255
4.273747e-001 5.892145e-001 2.876564e+000 255 255 255
-8.554762e-002 8.228811e-001 2.525065e+000 255 255 255
6.833876e-002 -8.333202e-001 3.351912e+000 255 255 255
-1.048405e-001 -7.695558e-001 3.310100e+000 255 255 255
1.681795e-001 -6.868226e-001 3.235300e+000 255 255 255
3.242611e-001 -7.549486e-001 3.427915e+000 255 255 255
1.223350e-001 -5.940111e-001 3.339671e+000 255 255 255
1.463556e-001 -1.979984e-001 3.312839e+000 255 255 255
-5.030797e-001 3.403358e-002 2.876516e+000 255 255 255
-5.030797e-001 3.403358e-002 2.876516e+000 255 255 255
1.288622e-001 1.125978e-001 2.960990e+000 255 255 255
-3.232039e-001 2.031725e-001 2.920201e+000 255 255 255
-3.358148e-001 2.985232e-001 2.901279e+000 255 255 255
-3.358148e-001 2.985232e-001 2.901279e+000 255 255 255
-3.262582e-001 4.960079e-001 2.905342e+000 255 255 255
-1.175490e-001 -5.641387e-001 3.268657e+000 255 255 255
4.321686e-001 -4.775509e-001 3.255396e+000 255 255 255
4.936453e-002 3.535563e-001 2.942484e+000 255 255 255
-4.781478e-001 5.539005e-001 2.884732e+000 255 255 255
3.978138e-001 -6.289943e-001 3.358657e+000 255 255 255
2.139749e-001 6.342078e-001 2.854754e+000 255 255 255
-5.934520e-002 2.506826e-001 2.949772e+000 255 255 255
1.755272e-002 -1.425351e-002 9.522659e-002 255 255 255
1.857847e-002 -2.924027e-003 7.192170e-002 255 255 255
1.851021e-002 -2.376341e-003 7.229095e-002 255 255 255
7.103011e-003 6.995440e-003 2.082735e-001 255 255 255
5.783353e-003 8.057982e-003 2.240020e-001 255 255 255
3.850299e-003 1.119151e-002 2.456058e-001 255 255 255
7.627108e-003 1.400888e-002 1.952403e-001 255 255 255
-1.821156e-003 2.547358e-002 3.042814e-001 255 255 255
4.906508e-002 -3.070508e-002 -2.865859e-001 255 255 255
9.690808e-002 -1.112237e-001 -8.173851e-001 255 255 255
3.847371e-002 -5.436526e-004 -1.803462e-001 255 255 255
3.923732e-002 -3.591024e-003 -1.871922e-001 255 255 255
5.316537e-002 -1.495966e-002 -3.531179e-001 255 255 255
-3.998037e-004 1.957477e-002 2.917029e-001 255 255 255
-4.661616e-003 3.102268e-002 3.351115e-001 255 255 255
3.303527e-002 3.330833e-002 -1.434310e-001 255 255 255
1.788669e-002 -1.432059e-002 9.104369e-002 255 255 255
5.016294e-002 -6.895227e-003 -3.225901e-001 255 255 255
1.171021e-001 -1.946807e-001 -9.954917e-001 255 255 255
1.768441e-002 -1.175420e-002 9.128685e-002 255 255 255
-6.704951e-003 1.026192e-002 3.799854e-001 255 255 255
-2.474066e-002 -1.817298e-001 7.831681e-001 255 255 255
3.846107e-003 2.763817e-002 2.306091e-001 255 255 255
8.314209e-002 -3.885361e-002 -7.102123e-001 255 255 255
0.000000e+000 0.000000e+000 0.000000e+000 0 255 0
0.000000e+000 0.000000e+000 -5.000000e-002 255 0 50
9.085088e-001 -2.489269e-001 3.356295e-001 255 255 0
9.227516e-001 -2.528387e-001 2.878609e-001 255 0 50
