ply
format ascii 1.0
element face 0
property list uchar int vertex_indices
element vertex 352
property float x
property float y
property float z
property uchar diffuse_red
property uchar diffuse_green
property uchar diffuse_blue
end_header
5.963490e-002 -8.670942e-001 3.476486e+000 225 83 170
2.098128e-001 -7.906702e-001 3.457210e+000 207 87 135
-1.810884e-001 -6.750264e-001 3.392750e+000 140 239 227
6.655213e-001 -6.496023e-001 3.528560e+000 95 211 236
-3.340975e-001 -3.941173e-001 3.146726e+000 177 229 178
-5.037946e-001 -4.152518e-001 3.529644e+000 65 33 137
-9.984768e-002 -3.060871e-001 2.901109e+000 39 0 203
-1.114013e-001 -3.405068e-001 3.273319e+000 22 34 105
-2.208795e-001 -3.152287e-001 3.207244e+000 193 228 233
-3.781843e-001 -3.266795e-001 3.605421e+000 187 19 80
-4.742929e-001 -3.339676e-001 3.848459e+000 187 74 153
-5.844622e-001 -3.418253e-001 4.127432e+000 105 179 210
-7.177828e-001 -3.512583e-001 4.465085e+000 236 236 240
-1.071010e+000 -3.746633e-001 5.360917e+000 11 182 115
9.437534e-001 -1.975311e-001 3.691195e+000 243 125 44
9.437534e-001 -1.975311e-001 3.691195e+000 233 72 150
9.500785e-001 -1.228603e-001 3.711577e+000 216 65 105
-2.968474e-001 -7.307229e-002 3.147211e+000 250 156 103
-5.691508e-001 4.617964e-002 2.983157e+000 223 26 244
7.866188e-002 1.093773e-001 3.051799e+000 119 170 8
4.747859e-002 1.379763e-001 3.038689e+000 123 46 227
3.320071e-002 1.682497e-001 3.031937e+000 138 177 158
1.195415e-001 2.193519e-001 3.064862e+000 160 109 251
-1.797812e-002 2.518659e-001 3.007696e+000 37 24 27
-5.128415e-001 3.230382e-001 2.998783e+000 235 159 8
-3.663773e-001 3.833696e-001 3.003478e+000 112 194 219
-3.557024e-001 4.085699e-001 3.000886e+000 85 202 51
-3.410238e-001 6.810228e-001 2.996437e+000 76 242 95
1.409782e-001 6.751881e-001 2.915244e+000 106 1 4
1.168875e-001 6.844277e-001 2.873255e+000 212 77 215
2.915063e-001 6.833046e-001 2.869589e+000 68 11 2
1.165741e-001 7.149348e-001 2.819682e+000 238 165 60
7.451442e-001 7.303779e-001 2.876206e+000 177 89 56
-2.303440e-001 7.209282e-001 2.838582e+000 71 139 26
6.984802e-001 7.534056e-001 2.837789e+000 76 72 11
4.236927e-001 -8.635630e-001 3.509596e+000 77 217 108
3.178577e-001 -4.081853e-001 3.382062e+000 123 163 31
3.178917e-001 -4.078940e-001 3.381713e+000 4 187 18
-5.019260e-001 -2.842980e-001 3.271505e+000 138 216 62
-8.440165e-001 -2.942771e-001 3.982479e+000 203 217 190
-4.572631e-001 -3.728819e-002 3.050372e+000 85 109 127
-6.295126e-001 8.962135e-003 2.950939e+000 107 176 120
-6.192107e-001 5.724482e-002 2.954882e+000 73 136 33
-3.440795e-001 7.453696e-002 3.058936e+000 4 66 9
-3.440795e-001 7.453696e-002 3.058936e+000 164 179 212
-3.413202e-001 7.403926e-002 3.034657e+000 186 157 228
-5.668571e-002 1.604392e-001 2.996470e+000 47 26 96
-4.054015e-003 2.026503e-001 3.016260e+000 41 239 109
-3.205316e-002 3.344472e-001 3.003231e+000 246 252 248
1.120003e+000 4.213451e-001 3.733963e+000 13 31 173
1.143622e+000 6.143183e-001 3.238107e+000 165 1 147
1.699013e-001 7.114649e-001 2.819895e+000 159 35 208
7.067662e-001 7.293828e-001 2.857751e+000 141 180 23
-1.937104e-001 7.779460e-001 2.702922e+000 151 138 6
1.212051e-001 -7.359411e-001 3.338695e+000 135 90 78
6.918837e-001 -5.547441e-001 3.522604e+000 216 247 152
-4.809093e-001 -4.577488e-001 3.546918e+000 41 204 210
4.460051e-001 -4.033460e-001 3.350265e+000 34 120 86
-5.565650e-001 -8.677639e-003 2.987885e+000 12 45 110
-4.617911e-001 6.400127e-002 2.970664e+000 112 6 165
1.849800e-001 1.708579e-001 3.094606e+000 21 143 178
-3.887168e-001 2.133371e-001 2.991599e+000 196 143 214
2.507054e-001 5.516805e-001 3.106445e+000 247 228 162
8.220468e-001 5.742811e-001 3.113459e+000 138 87 145
-3.514220e-001 5.854961e-001 2.989884e+000 116 199 207
-2.540475e-001 5.925999e-001 3.045468e+000 227 146 113
1.500880e-001 6.011266e-001 2.926406e+000 254 10 55
5.191087e-001 6.674527e-001 2.902189e+000 108 138 43
3.867178e-001 6.887513e-001 2.874236e+000 204 16 192
4.003711e-002 7.218956e-001 2.823351e+000 107 171 215
2.779295e-001 -8.379582e-001 3.542639e+000 122 73 40
-1.582612e-001 -4.993452e-001 3.417512e+000 89 70 48
7.385917e-001 -1.530348e-001 3.576727e+000 210 123 196
-5.776484e-003 2.406968e-002 3.024965e+000 76 246 227
-2.139678e-002 7.651428e-002 3.018352e+000 80 158 101
-5.261149e-002 8.050752e-002 2.981430e+000 175 225 75
-4.091825e-001 9.125711e-002 2.975663e+000 119 102 49
1.098837e-001 2.674517e-001 3.048232e+000 58 80 46
-3.021494e-001 3.651369e-001 3.031791e+000 31 221 98
-3.021494e-001 3.651369e-001 3.031791e+000 64 81 79
4.415566e-001 6.085407e-001 2.973311e+000 51 154 29
-8.875507e-002 8.477014e-001 2.604930e+000 160 97 243
7.062504e-002 -8.609827e-001 3.467149e+000 170 109 227
-1.081720e-001 -7.945584e-001 3.424163e+000 244 82 179
1.737962e-001 -7.092841e-001 3.341116e+000 145 165 75
3.355479e-001 -7.810941e-001 3.547023e+000 228 231 38
1.265966e-001 -6.142182e-001 3.456647e+000 135 59 6
1.517809e-001 -2.046708e-001 3.432459e+000 159 216 77
-5.209552e-001 3.607406e-002 2.979373e+000 251 121 88
-5.209552e-001 3.607406e-002 2.979373e+000 226 68 207
1.329652e-001 1.157204e-001 3.059312e+000 8 2 144
-3.345095e-001 2.107013e-001 3.023132e+000 31 183 83
-3.476277e-001 3.094275e-001 3.004089e+000 199 70 38
-3.476277e-001 3.094275e-001 3.004089e+000 162 74 171
-3.378365e-001 5.142174e-001 3.009808e+000 105 191 124
-1.214530e-001 -5.826276e-001 3.383117e+000 186 144 142
4.466320e-001 -4.944966e-001 3.365182e+000 129 148 135
5.097995e-002 3.653342e-001 3.042795e+000 91 70 4
-4.958216e-001 5.751673e-001 2.992089e+000 59 110 193
4.114797e-001 -6.508910e-001 3.473145e+000 182 254 223
2.210422e-001 6.551720e-001 2.950746e+000 122 163 45
-6.140346e-002 2.591277e-001 3.050738e+000 172 74 208
4.487713e-002 -6.094438e-001 3.413870e+000 16 9 98
1.323011e+000 -6.638363e-001 3.751724e+000 56 1 247
-4.611809e-001 -4.359041e-001 3.438852e+000 144 6 209
-2.557590e-001 -3.886886e-001 3.117420e+000 24 190 8
-2.019313e-001 -3.869799e-001 3.129818e+000 103 194 188
-2.594525e-001 -3.943017e-001 3.162439e+000 97 170 82
-2.038052e-001 -3.905710e-001 3.158862e+000 63 126 162
-3.398737e-002 -4.008997e-001 3.298149e+000 195 41 75
1.133853e+000 -4.001745e-001 3.604586e+000 217 127 10
1.123779e+000 -3.682421e-001 3.589216e+000 166 8 116
-4.613943e-001 -4.012665e-001 3.990845e+000 231 20 239
-4.613943e-001 -4.012665e-001 3.990845e+000 107 59 178
-5.461682e-001 -3.424977e-001 3.441121e+000 133 149 60
-4.374816e-001 -3.469309e-001 3.532659e+000 111 81 103
-3.822649e-001 -3.498872e-001 3.579708e+000 95 121 24
5.964454e-004 -3.586980e-001 3.895719e+000 168 30 245
-5.608485e-001 -3.517036e-001 3.533614e+000 184 201 249
-4.634945e-001 -3.675597e-001 3.742714e+000 243 84 116
-4.116593e-001 -3.767919e-001 3.854971e+000 187 161 177
7.225855e-004 -4.345578e-001 4.719610e+000 103 254 190
-6.179162e-001 -5.655789e-001 5.786458e+000 224 131 241
-6.326553e-001 -3.967330e-001 3.986030e+000 82 30 32
-6.242103e-001 -4.950102e-001 5.040492e+000 89 157 248
-6.179162e-001 -5.655789e-001 5.786458e+000 164 214 77
9.203755e-003 -5.535074e+000 6.011488e+001 179 84 104
5.018424e-004 -3.018045e-001 3.277814e+000 244 234 106
-5.315687e-001 -3.333425e-001 3.349137e+000 49 184 121
-4.128226e-001 -3.273759e-001 3.333538e+000 103 125 77
-3.551844e-001 -3.251004e-001 3.326114e+000 154 170 255
5.018424e-004 -3.018045e-001 3.277814e+000 32 78 66
-6.491715e-001 -1.309137e-001 3.218094e+000 93 213 255
-6.436144e-001 -8.495329e-002 3.183926e+000 1 240 244
-4.242600e-001 -6.732614e-002 3.166230e+000 99 209 197
4.325026e-001 -1.550984e-002 3.285376e+000 223 163 75
-4.630700e-001 -4.853064e-003 3.126380e+000 231 8 189
-6.061807e-001 5.333209e-002 3.089405e+000 134 224 96
3.835659e-001 5.658183e-002 3.240568e+000 39 45 125
-1.302463e-001 1.191877e-001 3.076270e+000 19 181 213
-1.302463e-001 1.191877e-001 3.076270e+000 210 114 188
-2.470735e-001 1.248194e-001 3.054920e+000 141 126 48
-2.089212e-001 1.572720e-001 3.046988e+000 120 182 48
-1.725667e-001 1.636240e-001 3.050499e+000 210 171 21
-1.725667e-001 1.636240e-001 3.050499e+000 106 97 135
-2.227165e-001 1.833589e-001 3.034533e+000 38 133 98
-2.710960e-001 2.147526e-001 3.015418e+000 206 179 246
-1.439205e-001 2.250756e-001 3.031367e+000 8 56 166
-2.967681e-001 2.323809e-001 3.005145e+000 207 167 21
-2.986641e-001 2.772425e-001 2.985939e+000 28 137 108
-5.278197e-001 3.937912e-001 2.910844e+000 51 186 0
-7.824518e-001 5.324028e-001 2.817389e+000 76 2 68
-7.824518e-001 5.324028e-001 2.817389e+000 191 58 246
-8.088932e-001 5.724407e-001 2.795082e+000 107 126 157
-3.838997e-001 6.287143e-001 2.824679e+000 45 231 233
-3.348337e-001 6.574793e-001 2.820004e+000 1 82 198
-2.825393e-001 6.862614e-001 2.816436e+000 163 12 193
2.501816e-003 8.691092e-001 2.794090e+000 4 139 180
8.085038e-001 -4.974123e-001 3.575137e+000 235 91 62
-5.831947e-001 -1.311299e-001 3.231448e+000 176 252 92
-5.021484e-001 2.644120e-002 3.107846e+000 221 44 188
4.240607e-001 2.869043e-002 3.263308e+000 191 16 193
9.711126e-001 1.019198e-001 3.354361e+000 179 248 74
-2.603449e-001 9.789385e-002 3.064439e+000 164 145 11
-2.492813e-001 1.770403e-001 3.033553e+000 79 30 205
-4.923142e-001 4.199249e-001 2.902320e+000 160 244 60
-4.593771e-001 5.342926e-001 2.855041e+000 139 90 38
-2.407209e-001 6.580105e-001 2.835371e+000 199 195 101
3.289978e-001 -7.633367e-001 3.560023e+000 46 118 160
3.349326e-001 -7.113341e-001 3.542368e+000 78 51 99
-6.987740e-002 -4.728953e-001 3.309311e+000 38 24 1
-2.288152e-001 -4.222197e-001 3.177812e+000 188 24 140
1.203642e+000 -4.313791e-001 3.631979e+000 9 187 25
3.388973e-001 -2.834715e-001 3.378913e+000 208 168 216
-5.048287e-001 -9.454806e-003 3.132867e+000 17 59 172
-2.728723e-001 5.985931e-002 3.078912e+000 61 210 104
-2.368992e-001 6.406836e-002 3.079790e+000 20 122 252
-5.004049e-001 9.714039e-002 3.063843e+000 137 23 122
9.193374e-001 1.540714e-001 3.319907e+000 29 254 104
-7.272172e-002 2.024181e-001 3.055894e+000 181 29 39
-4.470324e-001 2.387260e-001 2.990749e+000 185 168 218
-4.470324e-001 2.387260e-001 2.990749e+000 118 126 130
-8.506558e-002 2.773742e-001 3.022370e+000 15 200 243
-4.841478e-001 3.878757e-001 2.917821e+000 33 122 245
-4.466082e-001 4.222545e-001 2.906154e+000 96 60 62
-2.752123e-001 5.469757e-001 2.875942e+000 165 155 226
-3.557601e-001 6.382165e-001 2.824886e+000 134 102 207
-1.764234e-001 6.898626e-001 2.833650e+000 35 107 252
2.803052e-002 8.485873e-001 2.807955e+000 125 13 24
6.682182e-002 8.716804e-001 2.806373e+000 248 192 218
3.938176e-001 -8.096740e-001 3.594951e+000 43 141 213
-2.327278e-001 -4.275239e-001 3.182611e+000 103 95 158
2.769803e-002 -4.387672e-001 3.341314e+000 218 232 104
7.674287e-001 -4.681735e-001 3.554340e+000 27 214 219
3.760993e-001 1.143257e-002 3.259228e+000 31 142 250
-2.117006e-001 2.154641e-002 3.098157e+000 58 223 241
8.707344e-001 1.886253e-001 3.293781e+000 39 245 47
-1.667522e-001 2.637238e-001 3.011387e+000 195 176 159
-4.972255e-001 3.442742e-001 2.936880e+000 161 91 96
6.130150e-001 9.001439e-001 2.915585e+000 103 250 123
5.679623e-001 -6.447976e-001 3.577612e+000 191 75 146
-5.320583e-003 -5.995736e-001 3.391466e+000 40 145 136
5.195364e-002 -5.182816e-001 3.381245e+000 254 185 160
5.581766e-001 -3.293544e-001 3.450809e+000 85 237 47
-4.488631e-001 1.111223e-001 3.055417e+000 187 208 80
3.150434e-001 -6.168861e-001 3.501849e+000 196 255 57
-5.638743e-001 -5.097370e-001 3.389483e+000 190 199 85
-1.080294e-001 1.395344e-001 3.073157e+000 94 22 166
-6.050871e-001 3.493818e-001 2.925110e+000 60 86 102
-6.547612e-001 -3.738181e-001 3.364932e+000 77 201 114
-5.444981e-001 -5.450380e-002 3.168541e+000 11 174 235
-6.279353e-001 6.500073e-002 3.080704e+000 113 26 161
-5.163893e-001 1.668726e-001 3.024501e+000 244 243 255
-6.128609e-001 2.155007e-001 2.993490e+000 239 85 49
-2.274984e-001 3.267922e-001 2.975224e+000 100 169 169
-2.265248e-001 3.270180e-001 2.975150e+000 234 85 191
-2.275082e-001 3.268063e-001 2.975352e+000 246 161 161
-2.265346e-001 3.270321e-001 2.975278e+000 205 47 5
-3.844862e-001 4.447121e-001 2.903581e+000 131 56 253
6.702013e-001 -6.535647e-001 3.605285e+000 177 129 122
-6.555338e-001 -5.587368e-001 3.378899e+000 190 21 149
-2.767386e-001 2.151817e-001 3.014587e+000 186 207 180
5.365640e-001 -4.910775e-001 3.510762e+000 139 160 6
-2.499674e-001 4.661358e-001 2.913796e+000 145 170 103
-4.082178e-001 2.570849e-001 2.984594e+000 131 227 150
1.083855e-002 -5.731124e-001 3.411120e+000 52 169 16
1.036707e+000 -6.809401e-001 3.718513e+000 117 166 103
-4.878795e-001 -3.672978e-001 3.438442e+000 217 81 174
-2.343481e-001 -3.711644e-001 3.263489e+000 188 210 189
-1.859033e-001 -3.739907e-001 3.289102e+000 161 122 22
-2.114960e-001 -3.692142e-001 3.204568e+000 188 139 74
-1.548648e-001 -3.711430e-001 3.204772e+000 56 222 199
-1.240371e-002 -3.837672e-001 3.298882e+000 240 125 172
9.462639e-001 -4.572909e-001 3.603190e+000 204 208 72
9.450359e-001 -4.304759e-001 3.591245e+000 70 74 177
-5.054332e-001 -2.877555e-001 3.657491e+000 213 75 118
-5.054332e-001 -2.877555e-001 3.657491e+000 194 42 249
-5.421038e-001 -2.685976e-001 3.383180e+000 161 218 75
-4.518880e-001 -2.763186e-001 3.462837e+000 150 16 4
-4.069508e-001 -2.807943e-001 3.502999e+000 174 14 8
-1.056802e-001 -3.007609e-001 3.763527e+000 59 238 221
-5.563880e-001 -2.685409e-001 3.413338e+000 40 114 195
-4.905979e-001 -2.763756e-001 3.552296e+000 47 252 216
-4.569784e-001 -2.810418e-001 3.624124e+000 50 70 206
-2.123642e-001 -3.035641e-001 4.126802e+000 89 1 29
-5.668279e-001 -2.815853e-001 3.890089e+000 191 104 110
-5.838747e-001 -2.684317e-001 3.471369e+000 75 23 252
-5.727121e-001 -2.764966e-001 3.742063e+000 33 41 218
-5.668279e-001 -2.815853e-001 3.890089e+000 216 94 55
-5.069926e-001 -3.113054e-001 5.130058e+000 156 16 127
3.856653e-002 -2.969709e-001 3.272344e+000 188 149 201
-5.174191e-001 -2.686956e-001 3.331065e+000 162 173 248
-3.891433e-001 -2.762261e-001 3.317833e+000 64 159 208
-3.279202e-001 -2.804033e-001 3.311652e+000 129 14 61
3.856653e-002 -2.969709e-001 3.272344e+000 33 77 170
-5.811653e-001 -7.060046e-002 3.192866e+000 165 117 239
-5.634402e-001 -2.893611e-002 3.164070e+000 47 22 93
-3.296806e-001 -3.973155e-002 3.158126e+000 192 95 219
4.619840e-001 -7.875850e-002 3.313835e+000 77 118 232
-3.545957e-001 2.240593e-002 3.123256e+000 122 254 249
-4.895965e-001 9.494752e-002 3.084723e+000 231 47 16
4.363655e-001 -1.124223e-002 3.273429e+000 114 171 152
4.388067e-003 9.481599e-002 3.091970e+000 244 164 187
4.388067e-003 9.481599e-002 3.091970e+000 178 9 127
-1.051272e-001 1.138083e-001 3.068538e+000 26 4 5
-6.258351e-002 1.393760e-001 3.064773e+000 242 201 26
-2.705114e-002 1.409113e-001 3.069880e+000 151 2 142
-2.705114e-002 1.409113e-001 3.069880e+000 53 75 25
-7.107800e-002 1.654555e-001 3.054609e+000 244 65 173
-1.120709e-001 2.011018e-001 3.037115e+000 160 147 7
1.088160e-002 1.947108e-001 3.057894e+000 177 207 145
-1.338546e-001 2.210917e-001 3.027585e+000 164 82 196
-1.271234e-001 2.636479e-001 3.012008e+000 105 58 122
-3.330803e-001 4.078861e-001 2.933580e+000 211 235 229
-5.676655e-001 5.834452e-001 2.828579e+000 34 30 133
-5.676655e-001 5.834452e-001 2.828579e+000 241 186 101
-5.871698e-001 6.276727e-001 2.805666e+000 192 74 203
-1.412280e-001 6.128834e-001 2.869806e+000 31 13 51
-8.736852e-002 6.328650e-001 2.869919e+000 219 201 194
-3.087421e-002 6.522814e-001 2.871342e+000 59 145 126
2.739329e-001 7.817408e-001 2.877912e+000 96 109 25
6.710969e-001 -5.178945e-001 3.567322e+000 200 23 200
-5.150385e-001 -7.755986e-002 3.207440e+000 202 182 140
-3.878491e-001 5.642805e-002 3.105995e+000 239 6 46
4.643572e-001 -3.940913e-002 3.295189e+000 217 33 98
9.249518e-001 -2.685050e-002 3.404282e+000 133 213 106
-1.228924e-001 9.035221e-002 3.075020e+000 7 77 151
-9.784592e-002 1.629072e-001 3.052348e+000 27 89 110
-2.916416e-001 4.277291e-001 2.928733e+000 53 121 214
-2.352182e-001 5.332691e-001 2.890032e+000 121 209 178
3.609170e-003 6.183213e-001 2.891115e+000 64 56 215
2.253956e-001 -7.188576e-001 3.538106e+000 21 254 138
2.401888e-001 -6.744889e-001 3.524038e+000 128 129 192
-6.028597e-002 -4.468479e-001 3.317865e+000 109 155 30
-2.004897e-001 -3.987724e-001 3.254331e+000 98 93 140
9.933845e-001 -4.870583e-001 3.626435e+000 76 19 221
3.272175e-001 -3.043492e-001 3.385816e+000 149 217 182
-3.998746e-001 2.371773e-002 3.127425e+000 83 84 119
-1.419913e-001 5.649739e-002 3.085252e+000 136 24 141
-1.057104e-001 5.593161e-002 3.086807e+000 109 3 208
-3.690082e-001 1.219238e-001 3.068105e+000 42 140 3
8.953192e-001 2.227480e-002 3.374433e+000 247 128 101
7.198949e-002 1.653559e-001 3.082627e+000 40 189 212
-2.831055e-001 2.478722e-001 3.007933e+000 185 123 20
-2.831055e-001 2.478722e-001 3.007933e+000 30 49 84
7.493388e-002 2.362780e-001 3.056057e+000 7 12 79
-2.899527e-001 3.956425e-001 2.942806e+000 123 77 74
-2.451133e-001 4.230759e-001 2.935382e+000 165 141 30
-5.165436e-002 5.169704e-001 2.922607e+000 1 69 161
-1.116853e-001 6.175646e-001 2.872360e+000 69 158 120
7.109351e-002 6.387900e-001 2.895210e+000 44 119 212
2.929487e-001 7.579751e-001 2.891925e+000 179 34 227
3.329481e-001 7.736758e-001 2.894155e+000 228 198 94
2.712239e-001 -7.609147e-001 3.567883e+000 10 28 87
-2.073986e-001 -4.032500e-001 3.261651e+000 68 209 157
3.115055e-002 -4.207482e-001 3.341884e+000 143 165 212
6.439311e-001 -4.909773e-001 3.549436e+000 98 19 226
4.204463e-001 -5.015815e-002 3.288025e+000 254 126 54
-8.807879e-002 1.341646e-002 3.099953e+000 85 87 165
8.641779e-001 5.647251e-002 3.351004e+000 109 236 28
-3.243265e-003 2.336111e-001 3.040847e+000 238 3 23
-3.122135e-001 3.557164e-001 2.958453e+000 21 215 13
8.116057e-001 7.155315e-001 3.032550e+000 229 35 138
4.469906e-001 -6.286422e-001 3.559979e+000 161 106 25
-3.123341e-002 -5.623185e-001 3.392325e+000 95 67 99
3.534602e-002 -4.927168e-001 3.380954e+000 204 161 160
5.010723e-001 -3.597010e-001 3.457349e+000 29 110 149
-3.122552e-001 1.279627e-001 3.062970e+000 127 146 23
2.412843e-001 -5.921894e-001 3.490152e+000 184 244 213
-5.803656e-001 -4.321845e-001 3.371143e+000 165 73 214
2.833726e-002 1.111826e-001 3.091894e+000 177 198 7
-4.216485e-001 3.765885e-001 2.940440e+000 116 141 83
-6.451441e-001 -2.939785e-001 3.322844e+000 60 132 147
-4.535655e-001 -1.247035e-002 3.156240e+000 224 250 92
-5.093264e-001 1.086717e-001 3.075807e+000 18 145 165
-3.697533e-001 1.896128e-001 3.033284e+000 101 32 47
-4.587774e-001 2.491585e-001 3.000267e+000 177 204 131
-4.884360e-002 3.007700e-001 3.008006e+000 122 173 122
-4.784969e-002 3.008499e-001 3.008041e+000 210 193 129
-4.887097e-002 3.007866e-001 3.008083e+000 71 215 177
-4.787699e-002 3.008664e-001 3.008118e+000 244 106 56
-1.786810e-001 4.353289e-001 2.937668e+000 107 113 52
5.288935e-001 -6.410746e-001 3.585421e+000 86 217 10
-6.734233e-001 -4.716073e-001 3.348120e+000 255 118 65
-1.174961e-001 2.022485e-001 3.036157e+000 189 97 31
4.509302e-001 -4.963920e-001 3.505193e+000 26 246 165
-4.334208e-002 4.359708e-001 2.956249e+000 194 31 86
-2.400083e-001 2.597979e-001 3.004809e+000 123 161 163
0.000000e+000 0.000000e+000 0.000000e+000 0 255 0
0.000000e+000 0.000000e+000 -5.000000e-002 255 0 50
9.003875e-001 -2.743265e-001 3.377089e-001 255 255 0
9.139749e-001 -2.785180e-001 2.897734e-001 255 0 50
